<?xml version="1.0" standalone="no"?>
<!DOCTYPE svg PUBLIC "-//W3C//DTD SVG 20010904//EN"
 "http://www.w3.org/TR/2001/REC-SVG-20010904/DTD/svg10.dtd">
<svg version="1.0" xmlns="http://www.w3.org/2000/svg"
 width="320pt" height="320pt" viewBox="0 0 320 250"
 preserveAspectRatio="xMidYMid meet">

<g transform="translate(8.000000,450.000000) scale(0.100000,-0.100000)"
fill="#bf122e" stroke="none">
<path d="M1270 4666 c-328 -58 -573 -186 -790 -412 -205 -214 -336 -469 -386
-751 -24 -136 -24 -374 0 -513 89 -510 457 -949 936 -1118 183 -64 256 -75
480 -76 228 -1 295 9 477 69 413 138 756 474 901 886 62 175 77 273 77 494 0
173 -3 214 -23 304 -68 302 -197 530 -418 740 -207 196 -409 303 -681 363
-124 27 -454 35 -573 14z m166 -753 c-13 -13 -387 45 -405 63 -7 7 51 122 105
205 57 90 193 228 254 257 l45 22 3 -272 c1 -149 1 -273 -2 -275z m239 499
c91 -57 201 -195 278 -348 l46 -91 -37 -11 c-56 -17 -198 -40 -284 -48 l-78
-6 0 271 c0 304 -7 283 75 233z m-583 -7 c-60 -51 -186 -256 -225 -368 -5 -13
-11 -15 -24 -8 -10 5 -57 29 -105 52 -49 24 -88 46 -88 50 0 10 115 114 163
148 99 68 259 150 295 151 8 0 0 -11 -16 -25z m1006 -50 c64 -31 189 -119 262
-184 34 -31 35 -32 15 -47 -19 -15 -198 -104 -208 -104 -3 0 -26 42 -52 93
-55 107 -142 241 -179 276 -14 14 -26 28 -26 32 0 11 109 -27 188 -66z m441
-386 c39 -53 91 -149 127 -236 32 -77 74 -227 74 -265 0 -12 -27 -31 -81 -58
-226 -113 -375 -223 -579 -429 -128 -128 -280 -309 -320 -381 -7 -12 -35 11
-128 103 -66 64 -128 117 -137 117 -10 0 -52 -34 -94 -75 l-76 -75 226 -225
c125 -124 234 -225 243 -225 10 0 33 25 54 60 183 299 332 491 508 658 107
102 295 247 372 286 l32 17 0 -64 c0 -132 -57 -360 -122 -492 -186 -372 -570
-640 -990 -689 l-48 -6 0 109 0 109 -77 76 -78 76 -3 -165 c-1 -91 -5 -165 -8
-165 -3 0 -36 19 -72 43 -111 72 -238 231 -310 385 -13 29 -22 55 -20 57 2 2
52 8 111 13 60 6 110 12 112 14 2 2 -7 38 -18 80 -19 66 -25 78 -43 78 -25 0
-185 -27 -206 -35 -11 -4 -20 20 -41 102 -22 87 -57 323 -57 380 0 10 61 13
275 13 l274 0 3 -97 3 -98 78 -3 77 -3 0 101 0 100 236 0 c270 0 234 -11 383
115 l83 70 -6 85 c-7 110 -32 255 -60 352 l-23 77 86 35 c47 20 113 52 146 70
33 19 63 35 66 35 3 1 16 -13 28 -30z m-1926 -23 c51 -25 116 -53 145 -63 39
-13 51 -22 46 -33 -30 -79 -73 -348 -74 -463 l0 -67 -222 2 -223 3 3 45 c6 81
50 256 90 358 35 89 126 262 138 262 3 0 46 -20 97 -44z m1472 -264 c22 -98
45 -266 45 -327 l0 -25 -265 0 -265 0 0 210 0 210 39 0 c60 0 257 28 336 48
56 14 72 15 78 5 5 -7 19 -62 32 -121z m-945 98 c63 -11 157 -23 208 -27 l92
-6 0 -214 0 -213 -275 0 c-151 0 -275 2 -275 5 0 86 58 446 77 478 3 5 17 6
32 3 14 -3 78 -15 141 -26z m-413 -680 c7 -148 47 -392 78 -471 5 -13 -5 -21
-47 -34 -29 -10 -95 -40 -147 -66 -52 -27 -95 -48 -96 -46 0 1 -17 29 -37 62
-52 88 -92 170 -123 255 -31 87 -65 251 -65 316 l0 44 218 -2 217 -3 2 -55z
m183 -732 c54 -106 119 -204 180 -272 33 -37 33 -38 10 -31 -100 31 -230 97
-318 163 -49 37 -152 129 -152 136 0 3 100 49 200 94 14 6 26 11 26 11 1 1 25
-45 54 -101z"/>
<!-- <path d="M4118 4480 c-193 -35 -363 -139 -479 -292 -71 -95 -108 -168 -143
-285 -39 -130 -49 -226 -43 -416 4 -144 9 -188 31 -271 81 -300 272 -506 546
-588 85 -26 280 -35 379 -18 110 18 232 83 307 162 33 35 67 74 76 88 16 24
17 20 17 -107 l1 -133 145 0 145 0 0 490 0 490 -375 0 -375 0 0 -145 0 -145
200 0 c153 0 200 -3 200 -12 0 -26 -29 -119 -49 -162 -68 -138 -263 -226 -442
-199 -192 30 -323 153 -381 357 -19 69 -23 104 -23 241 0 180 12 240 70 363
38 81 116 167 183 201 128 65 305 66 432 1 49 -25 126 -110 154 -171 l24 -50
192 -2 192 -2 -7 45 c-40 263 -220 464 -487 541 -59 17 -108 21 -258 24 -102
2 -206 0 -232 -5z"/>
<path d="M5980 4478 c-83 -12 -186 -48 -258 -90 -78 -46 -210 -179 -260 -264
-162 -272 -188 -713 -61 -1027 45 -111 89 -177 184 -273 75 -75 106 -98 182
-136 138 -70 211 -83 438 -82 176 0 195 2 267 26 186 62 328 182 411 348 45
88 77 181 77 223 0 16 -16 17 -195 17 -131 0 -195 -3 -195 -11 0 -5 -12 -35
-26 -64 -34 -73 -105 -142 -184 -179 -60 -28 -74 -30 -170 -30 -125 0 -192 22
-273 88 -96 78 -152 180 -184 335 -19 95 -13 338 11 426 60 217 203 349 393
362 203 14 358 -83 417 -259 5 -16 24 -18 201 -18 l195 0 0 23 c0 43 -31 142
-70 223 -93 193 -287 332 -506 364 -84 12 -305 11 -394 -2z"/>
<path d="M7795 4480 c-312 -56 -539 -279 -625 -615 -28 -111 -43 -275 -37
-405 14 -280 92 -475 257 -640 115 -116 240 -179 414 -209 87 -16 252 -13 321
4 135 34 264 120 331 219 l34 51 0 -133 0 -132 145 0 145 0 0 490 0 490 -375
0 -375 0 0 -145 0 -145 200 0 c228 0 213 7 184 -91 -23 -77 -46 -118 -96 -168
-146 -146 -421 -159 -589 -27 -72 56 -132 147 -166 249 -24 76 -27 95 -27 252
-1 148 2 180 22 250 31 105 74 185 137 248 202 205 570 153 679 -96 l23 -51
192 -3 c137 -3 191 -1 191 7 0 32 -45 179 -70 233 -62 128 -160 227 -292 293
-118 59 -199 75 -398 79 -96 2 -197 0 -225 -5z"/> -->

</g>
</svg>
