<?xml version="1.0" standalone="no"?>
<!DOCTYPE svg PUBLIC "-//W3C//DTD SVG 20010904//EN"
 "http://www.w3.org/TR/2001/REC-SVG-20010904/DTD/svg10.dtd">
<svg version="1.0" xmlns="http://www.w3.org/2000/svg"
 width="886.000000pt" height="505.000000pt" viewBox="0 0 886.000000 505.000000"
 preserveAspectRatio="xMidYMid meet">

<g transform="translate(0.000000,505.000000) scale(0.100000,-0.100000)"
fill="#bf122e" stroke="none">
<path d="M1270 4666 c-328 -58 -573 -186 -790 -412 -205 -214 -336 -469 -386
-751 -24 -136 -24 -374 0 -513 89 -510 457 -949 936 -1118 183 -64 256 -75
480 -76 228 -1 295 9 477 69 413 138 756 474 901 886 62 175 77 273 77 494 0
173 -3 214 -23 304 -68 302 -197 530 -418 740 -207 196 -409 303 -681 363
-124 27 -454 35 -573 14z m166 -753 c-13 -13 -387 45 -405 63 -7 7 51 122 105
205 57 90 193 228 254 257 l45 22 3 -272 c1 -149 1 -273 -2 -275z m239 499
c91 -57 201 -195 278 -348 l46 -91 -37 -11 c-56 -17 -198 -40 -284 -48 l-78
-6 0 271 c0 304 -7 283 75 233z m-583 -7 c-60 -51 -186 -256 -225 -368 -5 -13
-11 -15 -24 -8 -10 5 -57 29 -105 52 -49 24 -88 46 -88 50 0 10 115 114 163
148 99 68 259 150 295 151 8 0 0 -11 -16 -25z m1006 -50 c64 -31 189 -119 262
-184 34 -31 35 -32 15 -47 -19 -15 -198 -104 -208 -104 -3 0 -26 42 -52 93
-55 107 -142 241 -179 276 -14 14 -26 28 -26 32 0 11 109 -27 188 -66z m441
-386 c39 -53 91 -149 127 -236 32 -77 74 -227 74 -265 0 -12 -27 -31 -81 -58
-226 -113 -375 -223 -579 -429 -128 -128 -280 -309 -320 -381 -7 -12 -35 11
-128 103 -66 64 -128 117 -137 117 -10 0 -52 -34 -94 -75 l-76 -75 226 -225
c125 -124 234 -225 243 -225 10 0 33 25 54 60 183 299 332 491 508 658 107
102 295 247 372 286 l32 17 0 -64 c0 -132 -57 -360 -122 -492 -186 -372 -570
-640 -990 -689 l-48 -6 0 109 0 109 -77 76 -78 76 -3 -165 c-1 -91 -5 -165 -8
-165 -3 0 -36 19 -72 43 -111 72 -238 231 -310 385 -13 29 -22 55 -20 57 2 2
52 8 111 13 60 6 110 12 112 14 2 2 -7 38 -18 80 -19 66 -25 78 -43 78 -25 0
-185 -27 -206 -35 -11 -4 -20 20 -41 102 -22 87 -57 323 -57 380 0 10 61 13
275 13 l274 0 3 -97 3 -98 78 -3 77 -3 0 101 0 100 236 0 c270 0 234 -11 383
115 l83 70 -6 85 c-7 110 -32 255 -60 352 l-23 77 86 35 c47 20 113 52 146 70
33 19 63 35 66 35 3 1 16 -13 28 -30z m-1926 -23 c51 -25 116 -53 145 -63 39
-13 51 -22 46 -33 -30 -79 -73 -348 -74 -463 l0 -67 -222 2 -223 3 3 45 c6 81
50 256 90 358 35 89 126 262 138 262 3 0 46 -20 97 -44z m1472 -264 c22 -98
45 -266 45 -327 l0 -25 -265 0 -265 0 0 210 0 210 39 0 c60 0 257 28 336 48
56 14 72 15 78 5 5 -7 19 -62 32 -121z m-945 98 c63 -11 157 -23 208 -27 l92
-6 0 -214 0 -213 -275 0 c-151 0 -275 2 -275 5 0 86 58 446 77 478 3 5 17 6
32 3 14 -3 78 -15 141 -26z m-413 -680 c7 -148 47 -392 78 -471 5 -13 -5 -21
-47 -34 -29 -10 -95 -40 -147 -66 -52 -27 -95 -48 -96 -46 0 1 -17 29 -37 62
-52 88 -92 170 -123 255 -31 87 -65 251 -65 316 l0 44 218 -2 217 -3 2 -55z
m183 -732 c54 -106 119 -204 180 -272 33 -37 33 -38 10 -31 -100 31 -230 97
-318 163 -49 37 -152 129 -152 136 0 3 100 49 200 94 14 6 26 11 26 11 1 1 25
-45 54 -101z"/>
<path d="M4118 4480 c-193 -35 -363 -139 -479 -292 -71 -95 -108 -168 -143
-285 -39 -130 -49 -226 -43 -416 4 -144 9 -188 31 -271 81 -300 272 -506 546
-588 85 -26 280 -35 379 -18 110 18 232 83 307 162 33 35 67 74 76 88 16 24
17 20 17 -107 l1 -133 145 0 145 0 0 490 0 490 -375 0 -375 0 0 -145 0 -145
200 0 c153 0 200 -3 200 -12 0 -26 -29 -119 -49 -162 -68 -138 -263 -226 -442
-199 -192 30 -323 153 -381 357 -19 69 -23 104 -23 241 0 180 12 240 70 363
38 81 116 167 183 201 128 65 305 66 432 1 49 -25 126 -110 154 -171 l24 -50
192 -2 192 -2 -7 45 c-40 263 -220 464 -487 541 -59 17 -108 21 -258 24 -102
2 -206 0 -232 -5z"/>
<path d="M5980 4478 c-83 -12 -186 -48 -258 -90 -78 -46 -210 -179 -260 -264
-162 -272 -188 -713 -61 -1027 45 -111 89 -177 184 -273 75 -75 106 -98 182
-136 138 -70 211 -83 438 -82 176 0 195 2 267 26 186 62 328 182 411 348 45
88 77 181 77 223 0 16 -16 17 -195 17 -131 0 -195 -3 -195 -11 0 -5 -12 -35
-26 -64 -34 -73 -105 -142 -184 -179 -60 -28 -74 -30 -170 -30 -125 0 -192 22
-273 88 -96 78 -152 180 -184 335 -19 95 -13 338 11 426 60 217 203 349 393
362 203 14 358 -83 417 -259 5 -16 24 -18 201 -18 l195 0 0 23 c0 43 -31 142
-70 223 -93 193 -287 332 -506 364 -84 12 -305 11 -394 -2z"/>
<path d="M7795 4480 c-312 -56 -539 -279 -625 -615 -28 -111 -43 -275 -37
-405 14 -280 92 -475 257 -640 115 -116 240 -179 414 -209 87 -16 252 -13 321
4 135 34 264 120 331 219 l34 51 0 -133 0 -132 145 0 145 0 0 490 0 490 -375
0 -375 0 0 -145 0 -145 200 0 c228 0 213 7 184 -91 -23 -77 -46 -118 -96 -168
-146 -146 -421 -159 -589 -27 -72 56 -132 147 -166 249 -24 76 -27 95 -27 252
-1 148 2 180 22 250 31 105 74 185 137 248 202 205 570 153 679 -96 l23 -51
192 -3 c137 -3 191 -1 191 7 0 32 -45 179 -70 233 -62 128 -160 227 -292 293
-118 59 -199 75 -398 79 -96 2 -197 0 -225 -5z"/>
<path d="M3633 2140 c-159 -33 -245 -216 -183 -384 35 -93 128 -156 230 -156
54 0 130 26 144 49 12 19 26 12 26 -14 0 -22 4 -25 40 -25 l40 0 0 145 0 145
-120 0 -120 0 0 -45 0 -45 70 0 c39 0 70 -2 70 -5 0 -3 -6 -21 -14 -40 -43
-103 -204 -96 -256 10 -43 90 -14 218 60 257 64 33 153 20 185 -29 12 -18 24
-23 61 -23 57 0 64 16 30 74 -42 72 -154 109 -263 86z"/>
<path d="M4680 2135 c-58 -19 -113 -64 -147 -122 -40 -68 -45 -181 -11 -254
28 -61 73 -109 127 -136 27 -13 59 -18 126 -18 80 0 95 3 137 27 25 16 60 45
77 65 108 131 65 351 -83 423 -58 28 -165 35 -226 15z m201 -120 c60 -57 76
-151 40 -231 -53 -116 -225 -126 -292 -17 -35 56 -32 157 5 214 36 53 75 70
153 66 53 -2 67 -7 94 -32z"/>
<path d="M4060 1875 l0 -265 175 0 175 0 0 45 0 45 -120 0 -120 0 0 220 0 220
-55 0 -55 0 0 -265z"/>
<path d="M5150 1875 l0 -265 137 0 c119 0 142 3 181 21 55 27 82 70 82 129 0
49 -38 120 -65 120 -21 0 -19 4 15 38 26 27 30 37 30 88 0 52 -3 59 -34 89
-43 40 -67 45 -222 45 l-124 0 0 -265z m250 160 c23 -12 30 -23 30 -45 0 -45
-40 -70 -111 -70 l-59 0 0 65 0 65 55 0 c31 0 69 -7 85 -15z m25 -220 c14 -13
25 -33 25 -45 0 -11 -11 -32 -25 -45 -24 -25 -31 -27 -117 -29 l-48 -1 0 73 0
72 70 0 c62 0 74 -3 95 -25z"/>
<path d="M5740 1885 c-58 -141 -106 -260 -108 -265 -2 -6 20 -10 52 -10 l55 0
22 60 22 61 115 -3 115 -3 20 -57 21 -58 59 0 c43 0 58 3 54 13 -3 6 -51 126
-108 265 l-103 252 -55 0 -56 0 -105 -255z m197 42 c17 -45 34 -89 38 -97 4
-13 -8 -15 -75 -15 -44 0 -80 0 -80 1 0 0 14 38 30 85 17 46 33 90 35 97 9 25
21 9 52 -71z"/>
<path d="M6280 1875 l0 -265 175 0 175 0 0 45 0 45 -125 0 -125 0 0 220 0 220
-50 0 -50 0 0 -265z"/>
<path d="M3574 1336 c-97 -45 -150 -145 -142 -264 6 -78 30 -131 85 -184 100
-97 292 -91 374 12 44 56 45 76 8 89 -48 17 -62 14 -81 -18 -24 -44 -71 -64
-135 -59 -95 8 -150 88 -141 203 5 62 26 97 78 133 64 43 173 20 202 -44 11
-23 15 -25 52 -19 56 10 61 17 38 61 -42 81 -103 114 -214 114 -56 0 -85 -6
-124 -24z"/>
<path d="M4162 1334 c-95 -47 -142 -131 -142 -254 0 -119 75 -222 183 -251 58
-16 163 -6 212 18 90 46 145 136 145 238 0 119 -45 200 -139 248 -76 38 -184
39 -259 1z m214 -84 c50 -32 77 -97 72 -175 -4 -72 -22 -105 -79 -143 -28 -20
-44 -23 -92 -20 -36 3 -67 12 -85 24 -64 48 -87 170 -46 249 39 76 157 109
230 65z"/>
<path d="M4680 1095 l0 -265 50 0 50 0 2 173 3 172 65 -127 65 -128 36 0 37 0
65 133 66 132 0 -177 1 -178 56 0 c47 0 55 3 50 16 -3 9 -6 127 -6 263 l0 247
-55 2 -55 2 -78 -156 -79 -157 -73 144 c-40 79 -77 150 -82 157 -6 7 -33 12
-64 12 l-54 0 0 -265z"/>
<path d="M5360 1097 l0 -267 55 0 55 0 0 89 0 89 88 4 c101 4 146 22 180 72
61 90 29 213 -66 253 -21 9 -89 17 -173 20 l-139 6 0 -266z m274 142 c35 -28
36 -77 1 -109 -21 -20 -39 -25 -95 -28 l-70 -4 0 81 0 81 69 0 c54 0 74 -4 95
-21z"/>
<path d="M5890 1095 l0 -265 170 0 170 0 0 45 0 45 -120 0 -120 0 0 220 0 220
-50 0 -50 0 0 -265z"/>
<path d="M6350 1096 l0 -266 55 0 55 0 -2 263 -3 262 -52 3 -53 3 0 -265z"/>
<path d="M6775 1328 c-60 -146 -195 -483 -195 -490 0 -4 24 -8 54 -8 l54 0 22
60 22 60 112 0 111 0 19 -60 19 -60 60 0 c43 0 58 3 54 13 -32 80 -201 486
-208 499 -7 14 -22 18 -60 18 -47 0 -51 -2 -64 -32z m107 -193 l36 -95 -80 0
c-63 0 -78 3 -71 13 6 6 23 49 39 95 16 45 31 82 35 82 3 0 22 -43 41 -95z"/>
<path d="M7230 1095 l0 -265 50 0 50 0 1 183 c0 145 3 178 12 163 7 -10 62
-91 122 -180 l110 -161 58 -3 57 -3 -2 263 -3 263 -46 3 c-44 3 -47 2 -50 -25
-3 -15 -4 -97 -4 -180 0 -84 -1 -153 -2 -153 -1 0 -20 26 -41 58 -102 152
-197 288 -207 294 -5 4 -31 8 -57 8 l-48 0 0 -265z"/>
<path d="M7942 1334 c-164 -81 -191 -322 -51 -448 58 -52 98 -66 189 -66 81 0
134 23 182 79 54 64 54 77 0 91 -45 11 -46 11 -70 -20 -45 -58 -116 -76 -185
-46 -143 61 -123 313 28 342 68 12 117 -8 158 -66 12 -17 21 -20 49 -15 58 11
62 17 40 61 -41 80 -108 114 -221 114 -52 0 -79 -6 -119 -26z"/>
<path d="M8430 1358 c0 -2 -1 -121 -3 -266 l-2 -262 178 0 177 0 0 45 0 45
-125 0 -125 0 0 70 0 70 105 0 105 0 0 45 0 45 -105 0 -105 0 0 55 0 55 125 0
125 0 0 50 0 50 -175 0 c-96 0 -175 -1 -175 -2z"/>
<path d="M3620 581 c-69 -21 -132 -75 -165 -141 -10 -19 -20 -65 -23 -101 -12
-164 96 -292 244 -290 54 0 135 28 148 50 12 19 26 12 26 -14 0 -22 4 -25 40
-25 l40 0 0 140 0 140 -120 0 -120 0 0 -40 0 -39 68 -3 c60 -3 67 -5 64 -23
-5 -37 -24 -62 -58 -79 -76 -36 -168 -6 -205 66 -28 54 -24 163 7 205 39 52
71 68 136 68 56 0 61 -2 94 -38 33 -36 37 -38 80 -31 24 3 44 10 44 16 0 22
-42 88 -67 106 -53 37 -166 53 -233 33z"/>
<path d="M4740 575 c-96 -30 -167 -124 -177 -233 -17 -193 140 -328 335 -288
113 23 179 92 202 212 42 217 -143 376 -360 309z m164 -89 c18 -8 46 -31 62
-51 25 -33 28 -46 29 -109 0 -83 -20 -127 -76 -164 -29 -20 -44 -23 -96 -20
-53 3 -68 9 -94 33 -17 17 -38 44 -45 62 -18 41 -18 124 0 166 34 81 135 119
220 83z"/>
<path d="M4060 320 l0 -260 55 0 55 0 0 95 0 95 35 0 c33 0 37 -4 92 -95 l58
-95 63 0 c48 0 61 3 56 13 -4 6 -34 52 -67 102 -55 82 -58 90 -41 100 98 54
123 170 54 248 -40 46 -86 57 -234 57 l-126 0 0 -260z m270 150 c27 -27 27
-83 -1 -108 -21 -20 -68 -32 -126 -32 l-33 0 0 80 0 80 70 0 c57 0 74 -4 90
-20z"/>
<path d="M5200 408 c0 -186 8 -235 47 -286 57 -75 198 -101 295 -53 93 45 108
89 108 327 l0 184 -50 0 -50 0 0 -170 c0 -235 -16 -270 -125 -270 -35 0 -52 6
-77 29 l-33 29 -3 191 -3 191 -55 0 -54 0 0 -172z"/>
<path d="M5780 320 l0 -260 50 0 50 0 0 89 0 89 83 3 c95 5 150 27 184 78 56
83 30 195 -57 239 -39 19 -59 22 -177 22 l-133 0 0 -260z m264 149 c28 -22 35
-64 16 -99 -13 -24 -62 -40 -126 -40 l-54 0 0 80 0 80 69 0 c54 0 74 -4 95
-21z"/>
</g>
</svg>
