<?xml version="1.0" encoding="utf-8"?>
<!-- Uploaded to: SVG Repo, www.svgrepo.com, Generator: SVG Repo Mixer Tools -->
<svg width="800px" height="800px" viewBox="0 0 1024 1024" class="icon"  version="1.1" xmlns="http://www.w3.org/2000/svg"><path d="M512.732 864.565l159.128 0.99s88.939-146.779 122.697-185.848c56.387-65.254 90.492-150.299 90.492-243.307 0-205.625-166.692-372.317-372.317-372.317S140.415 230.775 140.415 436.4c0 94.792 35.424 181.309 93.757 247.036 26.69 30.073 87.574 128.247 111.018 166.575v33.169s-0.586 73.259 75.046 74.463c70.565 1.123 241.423 0 241.423 0 10.281 0 18.616-8.334 18.616-18.616 0-10.281-8.334-18.616-18.616-18.616 0 0-170.858-1.082-241.423 0-34.355 0.527-39.699-32.792-39.451-55.03l131.947-0.816z m-142.285-37.394s-78.341-144.332-108.419-177.662c-52.5-58.176-84.382-134.753-84.382-218.654 0-182 150.023-329.54 335.085-329.54s335.085 147.54 335.085 329.54c0 82.323-30.694 157.596-81.443 215.354-30.383 34.579-110.427 180.972-110.427 180.972l-124.6-0.763V584.806c10.958 0.731 22.162-3.08 30.537-11.456l13.949-13.949c15.406-15.406 15.406-40.385 0-55.792-15.406-15.406-40.385-15.406-55.792 0l-13.533 13.533-1.956-1.956c-14.541-14.539-38.114-14.539-52.655 0-14.539 14.541-14.539 38.114 0 52.655l13.163 13.163c7.964 7.963 18.638 11.554 29.054 10.794v234.618l-123.666 0.755z" fill="#EF1111" /></svg>