<?xml version="1.0" encoding="iso-8859-1"?>
<!-- Uploaded to: SVG Repo, www.svgrepo.com, Generator: SVG Repo Mixer Tools -->
<svg fill="#000000" height="800px" width="800px" version="1.1" id="Capa_1" xmlns="http://www.w3.org/2000/svg" xmlns:xlink="http://www.w3.org/1999/xlink" 
	 viewBox="0 0 489.6 489.6" xml:space="preserve">
<g>
	<path d="M419.75,151.6l55.1-16.6c10.4-3.1,16.6-14.6,13.5-25s-14.6-16.6-25-13.5l-42.7,12.5l-25-22.9l7.3-33.3l43.7-13.5
		c10.4-3.1,16.6-14.6,13.5-25s-14.6-16.6-25-13.5l-55.1,16.6c-6.2,2.1-11.4,7.3-13.5,14.6l-11.3,46.8l-112.1,42.8
		c-20.6-28.3-54.2-47-91.9-47c-62.4,0-113.4,52-113.4,113.4c0,21.2,6.1,41.2,16.6,58.2V448h-33.2c-11.4,0-20.8,9.4-20.8,20.8
		s9.4,20.8,20.8,20.8h261.1c11.4,0,19.8-9.4,20.8-20.8c0-11.4-9.4-20.8-20.8-20.8h-33.3V243.8c9.9-16.8,15.6-36.3,15.6-56.8
		c0-10-1.4-19.8-3.9-29.1l107.9-41.2l32.3,30.7C406.75,152.2,412.95,153.9,419.75,151.6z M151.35,115.2c39.5,0,71.8,32.3,71.8,71.8
		s-32.3,71.8-71.8,71.8s-71.8-32.3-71.8-71.8S111.75,115.2,151.35,115.2z M96.15,448.1V286c16.3,9.1,35.2,14.4,55.1,14.4
		c20.4,0,39.6-5.6,56.2-15.2v162.9L96.15,448.1L96.15,448.1z"/>
</g>
</svg>