<?xml version="1.0" ?>
<!DOCTYPE svg  PUBLIC '-//W3C//DTD SVG 1.1//EN'  'http://www.w3.org/Graphics/SVG/1.1/DTD/svg11.dtd'>
<!-- Uploaded to: SVG Repo, www.svgrepo.com, Generator: SVG Repo Mixer Tools -->
<svg fill="#000000" width="800px" height="800px" viewBox="0 0 100 100" version="1.1" xml:space="preserve" xmlns="http://www.w3.org/2000/svg" xmlns:xlink="http://www.w3.org/1999/xlink">
<g id="_x31_"/>
<g id="_x32_"/>
<g id="_x33_"/>
<g id="_x34_"/>
<g id="_x35_"/>
<g id="_x36_"/>
<g id="_x37_"/>
<g id="_x38_"/>
<g id="_x39_"/>
<g id="_x31_0"/>
<g id="_x31_1"/>
<g id="_x31_2"/>
<g id="_x31_3"/>
<g id="_x31_4"/>
<g id="_x31_5"/>
<g id="_x31_6"/>
<g id="_x31_7"/>
<g id="_x31_8"/>
<g id="_x31_9">
<path d="M53.4,47h-6.7c-1.1,0-2-0.9-2-2V42h-3.1c-1.1,0-2-0.9-2-2v-6.7c0-1.1,0.9-2,2-2h3.1v-3.1c0-1.1,0.9-2,2-2h6.7   c1.1,0,2,0.9,2,2v3.1h3.1c1.1,0,2,0.9,2,2V40c0,1.1-0.9,2-2,2h-3.1V45C55.4,46.1,54.5,47,53.4,47z M48.6,43h2.7V40c0-1.1,0.9-2,2-2   h3.1v-2.7h-3.1c-1.1,0-2-0.9-2-2v-3.1h-2.7v3.1c0,1.1-0.9,2-2,2h-3.1V38h3.1c1.1,0,2,0.9,2,2V43z M70.9,70.9H29.1c-1.1,0-2-0.9-2-2   v-18c0-0.9,0.6-1.7,1.5-1.9c5.7-1.3,14.2-1.9,22,2.8c6.2,3.8,14,2.2,19.5,0.1c0.6-0.2,1.3-0.1,1.8,0.2c0.5,0.4,0.9,1,0.9,1.6v15.2   C72.9,70,72,70.9,70.9,70.9z M31.1,66.9h37.7V56.5c-6.1,1.8-13.8,2.7-20.3-1.4c-6-3.7-12.5-3.6-17.4-2.7V66.9z M59.4,58   c-3.7,0-7.4-0.8-10.8-2.9c-6.6-4.1-14-3.5-19-2.4c-0.6,0.1-1.2,0-1.7-0.4s-0.8-1-0.8-1.6V21.8c0-1.1,0.9-2,2-2h41.7   c1.1,0,2,0.9,2,2v31.9c0,0.8-0.5,1.6-1.3,1.9C68.1,56.9,63.8,58,59.4,58z M36.6,47.9c4.4,0,9.3,0.9,14,3.8   c5.7,3.5,12.8,2.4,18.2,0.6V23.8H31.1v24.6C32.8,48.1,34.7,47.9,36.6,47.9z M57.6,23.8H42.4c-0.8,0-1.6-0.5-1.9-1.3   c-0.4-1.1-0.6-2.2-0.6-3.3c0-5.5,4.5-10,10-10s10,4.5,10,10c0,1.1-0.2,2.2-0.6,3.3C59.2,23.2,58.4,23.8,57.6,23.8z M44,19.8H56   c0-0.2,0-0.4,0-0.6c0-3.3-2.7-6-6-6s-6,2.7-6,6C44,19.4,44,19.6,44,19.8z M58.4,78.7H41.6c-1.1,0-2-0.9-2-2v-7.8c0-1.1,0.9-2,2-2   h16.8c1.1,0,2,0.9,2,2v7.8C60.4,77.8,59.5,78.7,58.4,78.7z M43.6,74.7h12.8v-3.8H43.6V74.7z M50,90.9c-3,0-5.4-2.4-5.4-5.4v-8.7   c0-1.1,0.9-2,2-2h6.8c1.1,0,2,0.9,2,2v8.7C55.4,88.4,53,90.9,50,90.9z M48.6,78.7v6.7c0,0.8,0.6,1.4,1.4,1.4s1.4-0.6,1.4-1.4v-6.7   H48.6z"/>
</g>
<g id="_x32_0"/>
<g id="_x32_1"/>
<g id="_x32_2"/>
<g id="_x32_3"/>
<g id="_x32_4"/>
<g id="_x32_5"/>
</svg>