<?xml version="1.0" encoding="iso-8859-1"?>
<!-- Uploaded to: SVG Repo, www.svgrepo.com, Generator: SVG Repo Mixer Tools -->
<svg fill="#000000" version="1.1" id="Layer_1" xmlns="http://www.w3.org/2000/svg" xmlns:xlink="http://www.w3.org/1999/xlink" 
	 viewBox="0 0 293.84 293.84" xml:space="preserve">
<g>
	<g>
		<g>
			<path d="M277.936,31.341C262.374,10.756,237.74-0.949,211.869,0.06c-19.843,0.767-39,9.424-53.952,24.367l-10.181,10.186
				c-0.633,0.633-1.167,0.924-1.51,1.048v-1.305c0-15.143-11.324-28.081-25.781-29.462c-8.048-0.79-16.067,1.89-22.005,7.29
				c-5.948,5.41-9.357,13.114-9.357,21.148v38.233c0,13.99-5.452,27.143-15.343,37.038l-63.229,63.233l-3.776-3.776l-6.733,6.733
				l3.776,3.776l111.495,111.495l3.776,3.776l6.733-6.733l-3.776-3.776L271.387,133.95c8.652-8.652,14.776-18.352,18.19-28.829
				C298.031,79.203,293.783,52.308,277.936,31.341z M283.93,85.713h-4.371v9.524h2.8c-0.529,2.314-1.081,4.633-1.833,6.938
				c-2.948,9.033-8.286,17.457-15.871,25.042L115.274,276.598L17.245,178.57l63.229-63.229c5.852-5.852,10.39-12.676,13.462-20.105
				h4.671v-9.524h-1.681c1.067-4.59,1.681-9.314,1.681-14.148V33.332c0-5.357,2.276-10.49,6.238-14.1
				c4.019-3.657,9.224-5.395,14.7-4.862c9.619,0.924,17.157,9.7,17.157,19.986v1.767c0,3.79,2.114,7.024,5.524,8.433
				c3.933,1.633,8.633,0.405,12.243-3.21L164.65,31.16c10.986-10.981,24.49-18.052,38.719-20.562v8.448h9.524V9.589
				c9.91-0.271,19.61,1.657,28.571,5.367v4.09h8.319c4.59,2.662,8.857,5.852,12.757,9.524h-2.029v9.524h9.524v-1.362
				c0.095,0.124,0.21,0.229,0.3,0.352C280.954,51.132,285.597,68.232,283.93,85.713z"/>
			<rect x="89.083" y="238.094" width="9.524" height="9.524"/>
			<rect x="127.179" y="238.094" width="9.524" height="9.524"/>
			<rect x="108.131" y="219.046" width="9.524" height="9.524"/>
			<rect x="108.131" y="257.141" width="9.524" height="9.524"/>
			<rect x="89.083" y="199.998" width="9.524" height="9.524"/>
			<rect x="127.179" y="199.998" width="9.524" height="9.524"/>
			<rect x="108.131" y="180.951" width="9.524" height="9.524"/>
			<rect x="89.083" y="161.903" width="9.524" height="9.524"/>
			<rect x="127.179" y="161.903" width="9.524" height="9.524"/>
			<rect x="108.131" y="142.856" width="9.524" height="9.524"/>
			<rect x="89.083" y="123.808" width="9.524" height="9.524"/>
			<rect x="127.179" y="123.808" width="9.524" height="9.524"/>
			<rect x="108.131" y="104.76" width="9.524" height="9.524"/>
			<rect x="127.179" y="85.713" width="9.524" height="9.524"/>
			<rect x="108.131" y="66.665" width="9.524" height="9.524"/>
			<rect x="127.179" y="47.618" width="9.524" height="9.524"/>
			<rect x="108.131" y="28.57" width="9.524" height="9.524"/>
			<rect x="146.226" y="219.046" width="9.524" height="9.524"/>
			<rect x="165.274" y="199.998" width="9.524" height="9.524"/>
			<rect x="146.226" y="180.951" width="9.524" height="9.524"/>
			<rect x="184.321" y="180.951" width="9.524" height="9.524"/>
			<rect x="165.274" y="161.903" width="9.524" height="9.524"/>
			<rect x="146.226" y="142.856" width="9.524" height="9.524"/>
			<rect x="184.321" y="142.856" width="9.524" height="9.524"/>
			<rect x="165.274" y="123.808" width="9.524" height="9.524"/>
			<rect x="146.226" y="104.76" width="9.524" height="9.524"/>
			<rect x="184.321" y="104.76" width="9.524" height="9.524"/>
			<rect x="165.274" y="85.713" width="9.524" height="9.524"/>
			<rect x="146.226" y="66.665" width="9.524" height="9.524"/>
			<rect x="184.321" y="66.665" width="9.524" height="9.524"/>
			<rect x="165.274" y="47.618" width="9.524" height="9.524"/>
			<rect x="203.369" y="161.903" width="9.524" height="9.524"/>
			<rect x="222.417" y="142.856" width="9.524" height="9.524"/>
			<rect x="203.369" y="123.808" width="9.524" height="9.524"/>
			<rect x="241.464" y="123.808" width="9.524" height="9.524"/>
			<rect x="222.417" y="104.76" width="9.524" height="9.524"/>
			<rect x="203.369" y="85.713" width="9.524" height="9.524"/>
			<rect x="241.464" y="85.713" width="9.524" height="9.524"/>
			<rect x="222.417" y="66.665" width="9.524" height="9.524"/>
			<rect x="203.369" y="47.618" width="9.524" height="9.524"/>
			<rect x="241.464" y="47.618" width="9.524" height="9.524"/>
			<rect x="222.417" y="28.57" width="9.524" height="9.524"/>
			<rect x="184.321" y="28.57" width="9.524" height="9.524"/>
			<rect x="260.512" y="104.76" width="9.524" height="9.524"/>
			<rect x="260.512" y="66.665" width="9.524" height="9.524"/>
			<rect x="70.036" y="214.284" width="9.524" height="9.524"/>
			<rect x="50.988" y="195.237" width="9.524" height="9.524"/>
			<rect x="31.94" y="176.189" width="9.524" height="9.524"/>
			<rect x="70.036" y="176.189" width="9.524" height="9.524"/>
			<rect x="50.988" y="157.141" width="9.524" height="9.524"/>
			<rect x="70.036" y="138.094" width="9.524" height="9.524"/>
		</g>
	</g>
</g>
</svg>